<?xml version="1.0" encoding="UTF-8" standalone="no"?><!DOCTYPE svg PUBLIC "-//W3C//DTD SVG 1.1//EN" "http://www.w3.org/Graphics/SVG/1.1/DTD/svg11.dtd"><svg width="100%" height="100%" viewBox="0 0 128 128" version="1.1" xmlns="http://www.w3.org/2000/svg" xmlns:xlink="http://www.w3.org/1999/xlink" xml:space="preserve" style="fill-rule:evenodd;clip-rule:evenodd;stroke-linecap:round;stroke-linejoin:round;stroke-miterlimit:1.5;"><path d="M54.004,92.507c-0.07,0.254 0.069,0.519 0.318,0.605c9.666,3.329 19.182,3.273 28.565,0.177c0.227,-0.075 0.356,-0.313 0.296,-0.544c-0.798,-3.046 -5.879,-22.442 -9.745,-37.195c-0.546,-2.084 -2.422,-3.542 -4.576,-3.557c-2.154,-0.014 -4.05,1.418 -4.624,3.495c-4.046,14.635 -9.359,33.856 -10.234,37.019Z" style="fill:#11337a;stroke:#fff;stroke-width:1px;"/><path d="M107.523,25.97c0.181,-0.191 0.182,-0.489 0.003,-0.682c-9.051,-9.738 -20.007,-15.47 -32.673,-17.61c-0.235,-0.04 -0.461,0.11 -0.515,0.343c-0.834,3.532 -6.858,29.056 -11.428,48.42c-0.639,2.706 0.618,5.504 3.065,6.824c2.447,1.32 5.475,0.834 7.386,-1.186c13.622,-14.398 31.559,-33.358 34.162,-36.109Z" style="fill:#11337a;stroke:#fff;stroke-width:1px;"/><path d="M121.99,59.673c0.261,-0.023 0.461,-0.245 0.455,-0.508c-0.328,-14.01 -4.963,-26.19 -13.461,-36.729c-0.15,-0.186 -0.419,-0.223 -0.614,-0.086c-3.052,2.151 -25.674,18.094 -42.829,30.183c-2.392,1.686 -3.356,4.768 -2.349,7.516c1.006,2.749 3.731,4.48 6.647,4.223c20.828,-1.837 48.269,-4.257 52.151,-4.599Z" style="fill:#11337a;stroke:#fff;stroke-width:1px;"/><path d="M109.772,96.699c0.21,0.157 0.507,0.124 0.678,-0.076c9.574,-11.258 14.468,-24.099 15.165,-38.359c0.012,-0.239 -0.164,-0.445 -0.401,-0.472c-3.818,-0.437 -32.848,-3.758 -54.852,-6.275c-3.063,-0.35 -5.98,1.398 -7.115,4.265c-1.135,2.867 -0.204,6.138 2.269,7.979c17.703,13.175 41.039,30.543 44.256,32.938Z" style="fill:#11337a;stroke:#fff;stroke-width:1px;"/><path d="M74.106,117.134c0.053,0.257 0.297,0.429 0.558,0.393c15.362,-2.157 28.153,-8.823 38.637,-19.531c0.167,-0.17 0.172,-0.441 0.013,-0.619c-2.632,-2.937 -23.123,-25.804 -38.648,-43.13c-2.157,-2.407 -5.662,-3.068 -8.547,-1.61c-2.886,1.457 -4.434,4.67 -3.777,7.835c4.713,22.698 10.928,52.631 11.764,56.662Z" style="fill:#11337a;stroke:#fff;stroke-width:1px;"/><path d="M2.093,119.624c20.079,0.218 47.723,0.077 73.989,0.001c0,0 -0.231,-35.666 -0.404,-60.57c-0.022,-3.232 -2.211,-6.048 -5.338,-6.867c-3.128,-0.818 -5.742,1.076 -8.019,3.371c-60.157,60.629 -60.228,60.712 -60.228,60.712l0,3.353Z" style="fill:#11337a;stroke:#fff;stroke-width:1px;"/></svg>