<?xml version="1.0" encoding="UTF-8" standalone="no"?><!DOCTYPE svg PUBLIC "-//W3C//DTD SVG 1.1//EN" "http://www.w3.org/Graphics/SVG/1.1/DTD/svg11.dtd"><svg width="100%" height="100%" viewBox="0 0 128 128" version="1.1" xmlns="http://www.w3.org/2000/svg" xmlns:xlink="http://www.w3.org/1999/xlink" xml:space="preserve" style="fill-rule:evenodd;clip-rule:evenodd;stroke-linecap:round;stroke-linejoin:round;stroke-miterlimit:1.5;"><path d="M54.004,92.507c-0.07,0.254 0.069,0.519 0.318,0.605c9.666,3.329 19.182,3.273 28.565,0.177c0.227,-0.075 0.356,-0.313 0.296,-0.544c-0.798,-3.046 -5.879,-22.442 -9.745,-37.195c-0.546,-2.084 -2.422,-3.542 -4.576,-3.557c-2.154,-0.014 -4.05,1.418 -4.624,3.495c-4.046,14.635 -9.359,33.856 -10.234,37.019Z" style="fill:#11337a;stroke:#fff;stroke-width:1px;"/><path d="M32.442,75.211c-0.221,0.142 -0.294,0.433 -0.165,0.662c5.325,9.483 12.928,16.163 22.576,20.33c0.219,0.094 0.474,0.002 0.582,-0.211c1.477,-2.902 11.161,-21.937 18.522,-36.406c1.037,-2.039 0.577,-4.52 -1.121,-6.051c-1.699,-1.531 -4.214,-1.732 -6.134,-0.49c-13.573,8.782 -31.41,20.322 -34.26,22.166Z" style="fill:#11337a;stroke:#fff;stroke-width:1px;"/><path d="M27.814,46.162c-0.26,-0.041 -0.506,0.128 -0.563,0.386c-2.442,11.2 -1.122,21.786 3.573,31.819c0.102,0.216 0.354,0.316 0.576,0.229c3.118,-1.225 24.097,-9.466 40.036,-15.728c2.24,-0.88 3.611,-3.154 3.344,-5.546c-0.268,-2.392 -2.107,-4.307 -4.487,-4.671c-16.858,-2.575 -39.025,-5.962 -42.479,-6.489Z" style="fill:#11337a;stroke:#fff;stroke-width:1px;"/><path d="M44.51,19.824c-0.168,-0.202 -0.464,-0.24 -0.677,-0.085c-9.766,7.123 -16.13,16.395 -19.441,27.595c-0.068,0.229 0.054,0.471 0.278,0.553c3.237,1.186 25.578,9.373 42.542,15.589c2.38,0.872 5.049,0.038 6.509,-2.033c1.461,-2.071 1.35,-4.864 -0.271,-6.813c-11.505,-13.837 -26.641,-32.041 -28.94,-34.806Z" style="fill:#11337a;stroke:#fff;stroke-width:1px;"/><path d="M76.174,10.58c0.008,-0.263 -0.189,-0.487 -0.451,-0.512c-12.692,-1.195 -24.195,1.689 -34.63,8.232c-0.203,0.127 -0.271,0.389 -0.158,0.599c1.688,3.121 13.643,25.217 22.716,41.988c1.27,2.348 3.958,3.551 6.555,2.935c2.596,-0.617 4.457,-2.899 4.537,-5.566c0.57,-18.986 1.32,-43.976 1.431,-47.676Z" style="fill:#11337a;stroke:#fff;stroke-width:1px;"/></svg>